/* XPM */
static const char* w_xpm[] = {
/* columns rows colors chars-per-pixel */
"32 32 166 2 ",
"   c #107AAC",
".  c #197CAF",
"X  c #077EB6",
"o  c #0E7CB2",
"O  c #0777B9",
"+  c #0F74BA",
"@  c #0078BE",
"#  c #147EB1",
"$  c #1978B0",
"%  c #137FBB",
"&  c #207EA2",
"*  c #2C7DAD",
"=  c #2D7DB4",
"-  c #007FC1",
";  c #0A7FC5",
":  c #147CC3",
">  c #1D87AF",
",  c #0484BD",
"<  c #0B85BD",
"1  c #0589BF",
"2  c #0C8ABE",
"3  c #1B86B4",
"4  c #1588B7",
"5  c #1383BE",
"6  c #1983BD",
"7  c #1588BF",
"8  c #198BBF",
"9  c #0090BE",
"0  c #1B91BF",
"q  c #2F82A3",
"w  c #2380AC",
"e  c #2787B9",
"r  c #2E8ABB",
"t  c #338CB8",
"y  c #3C8EB4",
"u  c #3490BF",
"i  c #458BBF",
"p  c #4690B7",
"a  c #4093BF",
"s  c #549ABC",
"d  c #6B83A5",
"f  c #778FB5",
"g  c #7499B3",
"h  c #54A0BA",
"j  c #0385C4",
"k  c #0B85C4",
"l  c #028BC5",
"z  c #0D89C5",
"x  c #0587CC",
"c  c #0B84CB",
"v  c #018ACB",
"b  c #0A8ECC",
"n  c #1282C3",
"m  c #1189C5",
"M  c #1D8BC6",
"N  c #1181CA",
"B  c #168CCB",
"V  c #1D8DCF",
"C  c #0090C4",
"Z  c #0A93CA",
"A  c #1193C7",
"S  c #1691CB",
"D  c #1C90CD",
"F  c #0486D3",
"G  c #0A83D3",
"H  c #008AD3",
"J  c #0C8AD6",
"K  c #0385DB",
"L  c #0A82D8",
"P  c #008ADA",
"I  c #1A8AD1",
"U  c #0094D4",
"Y  c #0093DA",
"T  c #0A94D5",
"R  c #278AC3",
"E  c #288BC2",
"W  c #2A8DC8",
"Q  c #338DC0",
"!  c #2593CC",
"~  c #2598CE",
"^  c #3396C7",
"/  c #3D98C4",
"(  c #2F9DD2",
")  c #2F9CDF",
"_  c #2B94D5",
"`  c #2BA4DB",
"'  c #3DA0D7",
"]  c #0185E3",
"[  c #0088E1",
"{  c #0384E8",
"}  c #0093E1",
"|  c #1F98E1",
" . c #428EC0",
".. c #429CC1",
"X. c #429FCA",
"o. c #40A4D5",
"O. c #46A1D8",
"+. c #50A3D7",
"@. c #58A9D6",
"#. c #69AED5",
"$. c #62AFD9",
"%. c #68ACD9",
"&. c #69B2D5",
"*. c #71B5DA",
"=. c #51ACE3",
"-. c #66B2E6",
";. c #6DBAEE",
":. c #62B3EB",
">. c #7CBFE9",
",. c #64BFF4",
"<. c #77C3E7",
"1. c #78C6EA",
"2. c #6AC7F2",
"3. c #6FC5F8",
"4. c #7ED3FF",
"5. c #7BDEFF",
"6. c #9D9FB8",
"7. c #85AEC4",
"8. c #91B7DE",
"9. c #B1B0CF",
"0. c #80C7DD",
"q. c #BACBDD",
"w. c #8DCAF6",
"e. c #83CCFF",
"r. c #91CFF4",
"t. c #9BD7FB",
"y. c #92DCFF",
"u. c #9BDCFC",
"i. c #BFD2E1",
"p. c #AACFF9",
"a. c #A0DEF5",
"s. c #A2DDFF",
"d. c #88ECFF",
"f. c #94E3FF",
"g. c #95E8FF",
"h. c #95F2FF",
"j. c #9DF2FF",
"k. c #A6E5FF",
"l. c #A5EFFF",
"z. c #B5E5FF",
"x. c #B3EBFF",
"c. c #BCECFF",
"v. c #AAFFFF",
"b. c #BAF2FF",
"n. c #B4FFFF",
"m. c #BBFBFF",
"M. c #BDFFFF",
"N. c #C2CDE9",
"B. c #C4D8FB",
"V. c #D5DFFF",
"C. c #CDE1FF",
"Z. c #CAEAFF",
"A. c #C3F5FF",
"S. c #C1FFFF",
"D. c #C4FEFF",
"F. c #CEFEFF",
"G. c #D6F3FF",
"H. c #DDF6FF",
"J. c #D2FFFF",
"K. c #D5FFFF",
"L. c #D4FDFF",
"P. c #D4FEFF",
"I. c #D9FFFF",
"U. c #DCFBFF",
"Y. c #E1FDFF",
"T. c #E9FFFF",
/* pixels */
"v v K K H x < < L K K F z k K { ] F k j K ] F l c c K P v C v H ",
"v H P K H x 1 k L L K G k c K ] ] H j z K ] F x c x K K v l H H ",
"l H P P H v k k F K K F k x K ] [ P j l K ] F x x x P P v C v H ",
"v v P K v l k l F L F x x v F ] K H v x K K F v j x K P v C H H ",
"v H K K F v l x F K F H v v P K P H v H P K x x v H K F v l H H ",
"v H K K F l l v F K G x v H H F F H v H K F x v H F K F l l H P ",
"v v K K x x v H F F c l H H F x x x v H F G j v H H K F l v H H ",
"v H K K k l v H F c z j H U x k z x H U x c z j H P F c x v H K ",
"H H K F k j H H x ; n < Y v S 5 8 m v P k M X j H P F c b l K K ",
"H F K L k z H P J ) E o x v o Q r o H H % E ( z H P L c j v P ] ",
"H H K K k k H Y | 5.4.^ j T e y.y.^ H x W 3.d.` H [ G N c v K ] ",
"H H ] L k z P P I h.n./ j j a J.K.@.- @ Q l.v.~ P P c N j H [ ] ",
"H P ] K n k P P N 4.D.y j z #.I.K.>.k c  .m.f.o P [ N N b x K ] ",
"H P K L n < P P : -.K.&.B V s.U.G.z.I B %.K.<.  H P G n k H [ { ",
"H P ] K 5 5 P P +  .L.u.n W A.i.q.J._ O w.K.s . P P N : k H ] { ",
"P P P F 5 k P P B * c.c.e +.I.7.g I.:.= z.A.q ! P ] c N l U [ { ",
"] P v C 2 c K ] x # t.G.g 8.D.u t M.p.d Z.a.> x ] ] L c l C P ] ",
"{ [ C 9 1 N ] ] P , *.Y.9.B.l.0 7 g.V.6.Y.0.2 H { ; L l C C F K ",
"{ ] C C k c ] ] P z p U.V.U.2.4 < ,.G.N.Y.h z H { { { x C C H K ",
"{ K l C j l ] ] P b * c.T.J.' A , ' J.H.F.q 1 Y { { L x l v K L ",
"L K v l j x ] ] P v w r.U.b.! Z l ! x.U.k.w 1 Y ] ] L x C C H L ",
"] G C 1 l c K ] } j 3 $.S.y.B l v B e.b.<.> j H ] ] F x v v F K ",
"L F v l v F [ [ } l M u ;.=.l v H j O.-.X.4 l F ] ] F x v l F L ",
"F H v l x F K [ P v S   $ 6 j Y Y j % $ > , U H P ] F v v v F F ",
"F F l v x F K [ Y H j 5 5 k H H H H k 5 7 j H P [ K F x v v F F ",
"F x v v F F K P H H l z k x H P H H x c z v v P P K F x v v F F ",
"x F x F F F K H H v v v l x P P H H x x v H H H H F F x x v x F ",
"l x v F K F K F H v v v H F K H H H x H F H H H F F x v x x F F ",
"x v F F L K F F F x v v H H K K H F H H P F F F F x x x F F F H ",
"l l H F K F F x x v v H H P F G G F H P P H F F x x v F F v F H ",
"l v F F K K F x c j v H H F L L c F F P K K F c x j x x F F H v ",
"l v F L F K G x c x v H H K L L N F F P P P F c c x x x x F H H "
};
